
@startuml

skinparam class {
   backgroundcolor   #b7ddfc/White
   bordercolor       black
   ArrowColor        black
}

hide enum methods
hide circle

skinparam note {
   backgroundcolor   Ivory/White
   bordercolor       black
}

package "Laser Game System" as laserGameSystem <<Frame>> {

   package "Platforms" <<Frame>> {
      note as platformsNote1
         The various hardware platforms implement 
         the specific instances of the hardware
         components.
      end note

      namespace PC {
         class "Simple DirectMedia Layer" as sdlLib
      }

      namespace Arduino {
         class ArduinoHal
      }

      namespace Nucleo {
         class NucleoHal
      }
   }

   package "HW Abstraction" as hwAbstraction <<Frame>> {
      note as hwAbstractNote1
         The HW Abstraction layer provides
         abstract classes for common
         hardware components.
      end note

      class "<i>RotaryEncoder</i>" as rotaryEncoder {
         - position: int16_t
         + GetPosition(): int16_t
      }

      class "<i>PushButton</i>" as pushButton {
         - isPressed: bool
         + GetPressed(): bool
      }
      
      class "<i>Servo</i>" as servo {
         + SetPosition(pos: int16_t): void
      }
      
      class "<i>OnOffSwitch</i>" as onOffSwitch {
         + On(): void
         + Off(): void
         + Toggle(): void
      }
      
      class "Hal " as Hal{
         + {abstract} Init(): bool
         + {abstract} Delay(ms: int): void
         + {abstract} GetNumRotaryEncoders(): int
         + {abstract} GetNumPushButtons(): int
         + {abstract} GetNumPushServos(): int
         + {abstract} GetNumPushOnOffSwitches(): int
         + {abstract} GetOnOffSwitch(id: HalId): OnOffSwitch*
      }

      onOffSwitch --o Hal
      rotaryEncoder --o Hal
      servo --o Hal
      pushButton --o Hal
   }

   Hal <|-- Arduino.ArduinoHal
   Hal <|-- Nucleo.NucleoHal

   package "Game System" as gameSystem <<Frame>> {
      enum ButtonId <<enum>> {
         BUTTON_ID_A
         BUTTON_ID_B
         BUTTON_ID_C
         BUTTON_ID_D
         BUTTON_ID_START
      }

      enum AxisId <<enum>> {
         AXIS_ID_LEFT_X
         AXIS_ID_LEFT_Y
         AXIS_ID_RIGHT_X
         AXIS_ID_RIGHT_Y
      }

      class Button <<struct>> {
         + id: ButtonId
         + pressed: bool
      }

      Button -- ButtonId

      class Axis <<struct>> {
         + id: AxisId
         + position: int16_t
      }

      Axis -- AxisId

      namespace Drivers {
         class Canvas {
            + {abstract} Clear(): void
            + {abstract} DrawLine(start: Point, stop: Point): void
            + {abstract} DrawCircle(center: Point, radius: uint16_t): void
            + {abstract} DrawRect(topLeft: Point, bottomRight: Point): void
            + {abstract} DrawBezier(???): void
         }

         class "<i>DisplayIfc</i>" as DisplayIfc {
            + {abstract} Render(): void
         }
         
         class LaserDisplay {
         }

         class SdlDisplay {
         }

         Canvas --> DisplayIfc
         DisplayIfc <|-- LaserDisplay: implements
         DisplayIfc <|-- SdlDisplay: implements

         class "<i>GamePad</i>" as gamePad {
            + {abstract} GetButton(id: ButtonId): bool
            + {abstract} GetAxis(id: AxisId): int16_t
         }

         class GamePadPaddle {
            - button: Button
            - wheel: Axis
         }
         
         class GamePadPC {
         }

         gamePad <|-- GamePadPaddle
         gamePad <|-- GamePadPC
      }

      class GameSystem {
         + GetCanvas(): Canvas
         + GetNumGamePads(): uint16_t
         + GetGamePad(id: uint16_t): GamePad
      }

      class Program {
         + Init(gameSystem: GameSystem&): void
         + Start(): void
         + Update(): void
         + HandleEvent(e: Event): void
         + Stop(): void
      }
      
      class GameSystemLaser
      class GameSystemPC

      Drivers.GamePadPaddle *-- rotaryEncoder
      Drivers.GamePadPaddle *-- pushButton
      Drivers.LaserDisplay *-- "2" servo
      
      Drivers.GamePadPC -- PC.sdlLib
      Drivers.SdlDisplay -- PC.sdlLib

      GameSystem *-- "1..*" Drivers.gamePad
      GameSystem *-- "1" Drivers.Canvas
      GameSystem "1" o-- "*" Program
      Program ..> GameSystem
      GameSystem <|-right- GameSystemLaser
      GameSystem <|-left- GameSystemPC
   }

   package "Programs" as programs <<Frame>> {
      class "GiantBreakout" as breakout
      class "GiantAsteroids" as asteroids
      class "VectorSpaceLogo" as logo
      class "GiantPong" as pong
      
      note "Future?" as future
      breakout .. future
      asteroids .. future
   }

   Program <|-- pong
   Program <|-- logo
   Program <|-- breakout
   Program <|-- asteroids
}

@enduml
